<?xml version="1.0" encoding="UTF-8" standalone="no"?>
<!-- Created with Inkscape (http://www.inkscape.org/) -->

<svg
   xmlns:dc="http://purl.org/dc/elements/1.1/"
   xmlns:cc="http://creativecommons.org/ns#"
   xmlns:rdf="http://www.w3.org/1999/02/22-rdf-syntax-ns#"
   xmlns:svg="http://www.w3.org/2000/svg"
   xmlns="http://www.w3.org/2000/svg"
   xmlns:sodipodi="http://sodipodi.sourceforge.net/DTD/sodipodi-0.dtd"
   xmlns:inkscape="http://www.inkscape.org/namespaces/inkscape"
   width="48"
   height="48"
   viewBox="0 0 48 48.000001"
   id="svg2"
   version="1.1"
   inkscape:version="0.91 r13725"
   sodipodi:docname="icon.svg">
  <defs
     id="defs4" />
  <sodipodi:namedview
     id="base"
     pagecolor="#ffffff"
     bordercolor="#666666"
     borderopacity="1.0"
     inkscape:pageopacity="0.0"
     inkscape:pageshadow="2"
     inkscape:zoom="22.4"
     inkscape:cx="25.308782"
     inkscape:cy="25.253692"
     inkscape:document-units="px"
     inkscape:current-layer="layer1"
     showgrid="true"
     units="px"
     inkscape:snap-bbox="true"
     inkscape:bbox-nodes="true"
     inkscape:window-width="1918"
     inkscape:window-height="1059"
     inkscape:window-x="0"
     inkscape:window-y="19"
     inkscape:window-maximized="1">
    <inkscape:grid
       type="xygrid"
       id="grid4136"
       empspacing="8" />
  </sodipodi:namedview>
  <metadata
     id="metadata7">
    <rdf:RDF>
      <cc:Work
         rdf:about="">
        <dc:format>image/svg+xml</dc:format>
        <dc:type
           rdf:resource="http://purl.org/dc/dcmitype/StillImage" />
        <dc:title></dc:title>
      </cc:Work>
    </rdf:RDF>
  </metadata>
  <g
     inkscape:label="Layer 1"
     inkscape:groupmode="layer"
     id="layer1"
     transform="translate(0,-1004.3622)">
    <rect
       style="opacity:1;fill:#283593;fill-opacity:1;stroke:none;stroke-width:1;stroke-miterlimit:4;stroke-dasharray:none;stroke-opacity:1"
       id="rect4138"
       width="38"
       height="38"
       x="5"
       y="1009.3622"
       rx="3"
       ry="3" />
    <path
       inkscape:connector-curvature="0"
       style="opacity:1;fill:#fff9c4;fill-opacity:1;stroke:none;stroke-width:1;stroke-miterlimit:4;stroke-dasharray:none;stroke-opacity:1"
       d="M 8,1011.3622 13,1011.3622 C 13.554,1011.3622 14,1011.8082 14,1012.3622 L 14,1017.3622 C 14,1017.9162 13.554,1018.3622 13,1018.3622 L 8,1018.3622 C 7.446,1018.3622 7,1017.9162 7,1017.3622 L 7,1012.3622 C 7,1011.8082 7.446,1011.3622 8,1011.3622 Z"
       id="rect4140" />
    <path
       inkscape:connector-curvature="0"
       style="opacity:1;fill:#fff9c4;fill-opacity:1;stroke:none;stroke-width:1;stroke-miterlimit:4;stroke-dasharray:none;stroke-opacity:1"
       d="M 17,1011.3622 22,1011.3622 C 22.554,1011.3622 23,1011.8082 23,1012.3622 L 23,1017.3622 C 23,1017.9162 22.554,1018.3622 22,1018.3622 L 17,1018.3622 C 16.446,1018.3622 16,1017.9162 16,1017.3622 L 16,1012.3622 C 16,1011.8082 16.446,1011.3622 17,1011.3622 Z"
       id="rect4140-0" />
    <path
       inkscape:connector-curvature="0"
       style="opacity:1;fill:#fff9c4;fill-opacity:1;stroke:none;stroke-width:1;stroke-miterlimit:4;stroke-dasharray:none;stroke-opacity:1"
       d="M 26,1011.3622 31,1011.3622 C 31.554,1011.3622 32,1011.8082 32,1012.3622 L 32,1017.3622 C 32,1017.9162 31.554,1018.3622 31,1018.3622 L 26,1018.3622 C 25.446,1018.3622 25,1017.9162 25,1017.3622 L 25,1012.3622 C 25,1011.8082 25.446,1011.3622 26,1011.3622 Z"
       id="rect4140-08" />
    <path
       inkscape:connector-curvature="0"
       style="opacity:1;fill:#fff9c4;fill-opacity:1;stroke:none;stroke-width:1;stroke-miterlimit:4;stroke-dasharray:none;stroke-opacity:1"
       d="M 35,1011.3622 40,1011.3622 C 40.554,1011.3622 41,1011.8082 41,1012.3622 L 41,1017.3622 C 41,1017.9162 40.554,1018.3622 40,1018.3622 L 35,1018.3622 C 34.446,1018.3622 34,1017.9162 34,1017.3622 L 34,1012.3622 C 34,1011.8082 34.446,1011.3622 35,1011.3622 Z"
       id="rect4140-5" />
    <path
       style="opacity:1;fill:#fff9c4;fill-opacity:1;stroke:none;stroke-width:1;stroke-miterlimit:4;stroke-dasharray:none;stroke-opacity:1"
       d="M 8,1020.3622 13,1020.3622 C 13.554,1020.3622 14,1020.8082 14,1021.3622 L 14,1026.3622 C 14,1026.9162 13.554,1027.3622 13,1027.3622 L 8,1027.3622 C 7.446,1027.3622 7,1026.9162 7,1026.3622 L 7,1021.3622 C 7,1020.8082 7.446,1020.3622 8,1020.3622 Z"
       id="rect4140-55"
       inkscape:connector-curvature="0" />
    <path
       style="opacity:1;fill:#fff9c4;fill-opacity:1;stroke:none;stroke-width:1;stroke-miterlimit:4;stroke-dasharray:none;stroke-opacity:1"
       d="M 17,1020.3622 22,1020.3622 C 22.554,1020.3622 23,1020.8082 23,1021.3622 L 23,1026.3622 C 23,1026.9162 22.554,1027.3622 22,1027.3622 L 17,1027.3622 C 16.446,1027.3622 16,1026.9162 16,1026.3622 L 16,1021.3622 C 16,1020.8082 16.446,1020.3622 17,1020.3622 Z"
       id="rect4140-0-3"
       inkscape:connector-curvature="0" />
    <path
       style="opacity:1;fill:#fff9c4;fill-opacity:1;stroke:none;stroke-width:1;stroke-miterlimit:4;stroke-dasharray:none;stroke-opacity:1"
       d="M 26,1020.3622 31,1020.3622 C 31.554,1020.3622 32,1020.8082 32,1021.3622 L 32,1026.3622 C 32,1026.9162 31.554,1027.3622 31,1027.3622 L 26,1027.3622 C 25.446,1027.3622 25,1026.9162 25,1026.3622 L 25,1021.3622 C 25,1020.8082 25.446,1020.3622 26,1020.3622 Z"
       id="rect4140-08-0"
       inkscape:connector-curvature="0" />
    <path
       style="opacity:1;fill:#fff9c4;fill-opacity:1;stroke:none;stroke-width:1;stroke-miterlimit:4;stroke-dasharray:none;stroke-opacity:1"
       d="M 35,1020.3622 40,1020.3622 C 40.554,1020.3622 41,1020.8082 41,1021.3622 L 41,1026.3622 C 41,1026.9162 40.554,1027.3622 40,1027.3622 L 35,1027.3622 C 34.446,1027.3622 34,1026.9162 34,1026.3622 L 34,1021.3622 C 34,1020.8082 34.446,1020.3622 35,1020.3622 Z"
       id="rect4140-5-0"
       inkscape:connector-curvature="0" />
    <path
       style="opacity:1;fill:#fff9c4;fill-opacity:1;stroke:none;stroke-width:1;stroke-miterlimit:4;stroke-dasharray:none;stroke-opacity:1"
       d="M 8,1029.3622 13,1029.3622 C 13.554,1029.3622 14,1029.8082 14,1030.3622 L 14,1035.3622 C 14,1035.9162 13.554,1036.3622 13,1036.3622 L 8,1036.3622 C 7.446,1036.3622 7,1035.9162 7,1035.3622 L 7,1030.3622 C 7,1029.8082 7.446,1029.3622 8,1029.3622 Z"
       id="rect4140-6"
       inkscape:connector-curvature="0" />
    <path
       style="opacity:1;fill:#fff9c4;fill-opacity:1;stroke:none;stroke-width:1;stroke-miterlimit:4;stroke-dasharray:none;stroke-opacity:1"
       d="M 17,1029.3622 22,1029.3622 C 22.554,1029.3622 23,1029.8082 23,1030.3622 L 23,1035.3622 C 23,1035.9162 22.554,1036.3622 22,1036.3622 L 17,1036.3622 C 16.446,1036.3622 16,1035.9162 16,1035.3622 L 16,1030.3622 C 16,1029.8082 16.446,1029.3622 17,1029.3622 Z"
       id="rect4140-0-38"
       inkscape:connector-curvature="0" />
    <path
       style="opacity:1;fill:#fff9c4;fill-opacity:1;stroke:none;stroke-width:1;stroke-miterlimit:4;stroke-dasharray:none;stroke-opacity:1"
       d="M 26,1029.3622 31,1029.3622 C 31.554,1029.3622 32,1029.8082 32,1030.3622 L 32,1035.3622 C 32,1035.9162 31.554,1036.3622 31,1036.3622 L 26,1036.3622 C 25.446,1036.3622 25,1035.9162 25,1035.3622 L 25,1030.3622 C 25,1029.8082 25.446,1029.3622 26,1029.3622 Z"
       id="rect4140-08-8"
       inkscape:connector-curvature="0" />
    <path
       style="opacity:1;fill:#fff9c4;fill-opacity:1;stroke:none;stroke-width:1;stroke-miterlimit:4;stroke-dasharray:none;stroke-opacity:1"
       d="M 35,1029.3622 40,1029.3622 C 40.554,1029.3622 41,1029.8082 41,1030.3622 L 41,1035.3622 C 41,1035.9162 40.554,1036.3622 40,1036.3622 L 35,1036.3622 C 34.446,1036.3622 34,1035.9162 34,1035.3622 L 34,1030.3622 C 34,1029.8082 34.446,1029.3622 35,1029.3622 Z"
       id="rect4140-5-2"
       inkscape:connector-curvature="0" />
    <path
       style="opacity:1;fill:#fff9c4;fill-opacity:1;stroke:none;stroke-width:1;stroke-miterlimit:4;stroke-dasharray:none;stroke-opacity:1"
       d="M 8,1038.3622 13,1038.3622 C 13.554,1038.3622 14,1038.8082 14,1039.3622 L 14,1044.3622 C 14,1044.9162 13.554,1045.3622 13,1045.3622 L 8,1045.3622 C 7.446,1045.3622 7,1044.9162 7,1044.3622 L 7,1039.3622 C 7,1038.8082 7.446,1038.3622 8,1038.3622 Z"
       id="rect4140-1"
       inkscape:connector-curvature="0" />
    <path
       style="opacity:1;fill:#fff9c4;fill-opacity:1;stroke:none;stroke-width:1;stroke-miterlimit:4;stroke-dasharray:none;stroke-opacity:1"
       d="M 17,1038.3622 22,1038.3622 C 22.554,1038.3622 23,1038.8082 23,1039.3622 L 23,1044.3622 C 23,1044.9162 22.554,1045.3622 22,1045.3622 L 17,1045.3622 C 16.446,1045.3622 16,1044.9162 16,1044.3622 L 16,1039.3622 C 16,1038.8082 16.446,1038.3622 17,1038.3622 Z"
       id="rect4140-0-4"
       inkscape:connector-curvature="0" />
    <path
       style="opacity:1;fill:#fff9c4;fill-opacity:1;stroke:none;stroke-width:1;stroke-miterlimit:4;stroke-dasharray:none;stroke-opacity:1"
       d="M 26,1038.3622 31,1038.3622 C 31.554,1038.3622 32,1038.8082 32,1039.3622 L 32,1044.3622 C 32,1044.9162 31.554,1045.3622 31,1045.3622 L 26,1045.3622 C 25.446,1045.3622 25,1044.9162 25,1044.3622 L 25,1039.3622 C 25,1038.8082 25.446,1038.3622 26,1038.3622 Z"
       id="rect4140-08-1"
       inkscape:connector-curvature="0" />
    <path
       style="opacity:1;fill:#fff9c4;fill-opacity:1;stroke:none;stroke-width:1;stroke-miterlimit:4;stroke-dasharray:none;stroke-opacity:1"
       d="M 35,1038.3622 40,1038.3622 C 40.554,1038.3622 41,1038.8082 41,1039.3622 L 41,1044.3622 C 41,1044.9162 40.554,1045.3622 40,1045.3622 L 35,1045.3622 C 34.446,1045.3622 34,1044.9162 34,1044.3622 L 34,1039.3622 C 34,1038.8082 34.446,1038.3622 35,1038.3622 Z"
       id="rect4140-5-5"
       inkscape:connector-curvature="0" />
    <text
       xml:space="preserve"
       style="font-style:normal;font-weight:normal;font-size:6.25px;line-height:125%;font-family:Sans;letter-spacing:0px;word-spacing:0px;fill:#1a237e;fill-opacity:1;stroke:none;stroke-width:1px;stroke-linecap:butt;stroke-linejoin:miter;stroke-opacity:1;"
       x="8.2706909"
       y="1017.1403"
       id="text4276"
       sodipodi:linespacing="125%"><tspan
         sodipodi:role="line"
         id="tspan4278"
         x="8.2706909"
         y="1017.1403">B</tspan></text>
    <text
       xml:space="preserve"
       style="font-style:normal;font-weight:normal;font-size:6.25px;line-height:125%;font-family:Sans;letter-spacing:0px;word-spacing:0px;fill:#1a237e;fill-opacity:1;stroke:none;stroke-width:1px;stroke-linecap:butt;stroke-linejoin:miter;stroke-opacity:1;"
       x="17.040283"
       y="1017.1373"
       id="text4280"
       sodipodi:linespacing="125%"><tspan
         sodipodi:role="line"
         id="tspan4282"
         x="17.040283"
         y="1017.1373">O</tspan></text>
    <text
       xml:space="preserve"
       style="font-style:normal;font-weight:normal;font-size:6.25px;line-height:125%;font-family:Sans;letter-spacing:0px;word-spacing:0px;fill:#1a237e;fill-opacity:1;stroke:none;stroke-width:1px;stroke-linecap:butt;stroke-linejoin:miter;stroke-opacity:1;"
       x="26.159302"
       y="1017.1373"
       id="text4284"
       sodipodi:linespacing="125%"><tspan
         sodipodi:role="line"
         id="tspan4286"
         x="26.159302"
         y="1017.1373">G</tspan></text>
    <text
       xml:space="preserve"
       style="font-style:normal;font-weight:normal;font-size:6.25px;line-height:125%;font-family:Sans;letter-spacing:0px;word-spacing:0px;fill:#1a237e;fill-opacity:1;stroke:none;stroke-width:1px;stroke-linecap:butt;stroke-linejoin:miter;stroke-opacity:1;"
       x="35.159302"
       y="1017.1373"
       id="text4288"
       sodipodi:linespacing="125%"><tspan
         sodipodi:role="line"
         id="tspan4290"
         x="35.159302"
         y="1017.1373">G</tspan></text>
    <text
       xml:space="preserve"
       style="font-style:normal;font-weight:normal;font-size:6.25px;line-height:125%;font-family:Sans;letter-spacing:0px;word-spacing:0px;fill:#1a237e;fill-opacity:1;stroke:none;stroke-width:1px;stroke-linecap:butt;stroke-linejoin:miter;stroke-opacity:1;"
       x="35.469055"
       y="1026.1404"
       id="text4292"
       sodipodi:linespacing="125%"><tspan
         sodipodi:role="line"
         id="tspan4294"
         x="35.469055"
         y="1026.1404">L</tspan></text>
    <text
       xml:space="preserve"
       style="font-style:normal;font-weight:normal;font-size:6.25px;line-height:125%;font-family:Sans;letter-spacing:0px;word-spacing:0px;fill:#1a237e;fill-opacity:1;stroke:none;stroke-width:1px;stroke-linecap:butt;stroke-linejoin:miter;stroke-opacity:1;"
       x="35.418701"
       y="1035.1404"
       id="text4296"
       sodipodi:linespacing="125%"><tspan
         sodipodi:role="line"
         id="tspan4298"
         x="35.418701"
         y="1035.1404">E</tspan></text>
    <text
       xml:space="preserve"
       style="font-style:normal;font-weight:normal;font-size:6.25px;line-height:125%;font-family:Sans;letter-spacing:0px;word-spacing:0px;fill:#1a237e;fill-opacity:1;stroke:none;stroke-width:1px;stroke-linecap:butt;stroke-linejoin:miter;stroke-opacity:1;"
       x="8.484314"
       y="1026.1373"
       id="text4300"
       sodipodi:linespacing="125%"><tspan
         sodipodi:role="line"
         id="tspan4302"
         x="8.484314"
         y="1026.1373">S</tspan></text>
    <text
       xml:space="preserve"
       style="font-style:normal;font-weight:normal;font-size:6.25px;line-height:125%;font-family:Sans;letter-spacing:0px;word-spacing:0px;fill:#1a237e;fill-opacity:1;stroke:none;stroke-width:1px;stroke-linecap:butt;stroke-linejoin:miter;stroke-opacity:1;"
       x="8.0402832"
       y="1035.1373"
       id="text4304"
       sodipodi:linespacing="125%"><tspan
         sodipodi:role="line"
         id="tspan4306"
         x="8.0402832"
         y="1035.1373">O</tspan></text>
    <text
       xml:space="preserve"
       style="font-style:normal;font-weight:normal;font-size:6.25px;line-height:125%;font-family:Sans;letter-spacing:0px;word-spacing:0px;fill:#1a237e;fill-opacity:1;stroke:none;stroke-width:1px;stroke-linecap:butt;stroke-linejoin:miter;stroke-opacity:1;"
       x="8.4690552"
       y="1044.1404"
       id="text4308"
       sodipodi:linespacing="125%"><tspan
         sodipodi:role="line"
         id="tspan4310"
         x="8.4690552"
         y="1044.1404">L</tspan></text>
    <text
       xml:space="preserve"
       style="font-style:normal;font-weight:normal;font-size:6.25px;line-height:125%;font-family:Sans;letter-spacing:0px;word-spacing:0px;fill:#1a237e;fill-opacity:1;stroke:none;stroke-width:1px;stroke-linecap:butt;stroke-linejoin:miter;stroke-opacity:1;"
       x="17.36377"
       y="1044.1404"
       id="text4312"
       sodipodi:linespacing="125%"><tspan
         sodipodi:role="line"
         id="tspan4314"
         x="17.36377"
         y="1044.1404">V</tspan></text>
    <text
       xml:space="preserve"
       style="font-style:normal;font-weight:normal;font-size:6.25px;line-height:125%;font-family:Sans;letter-spacing:0px;word-spacing:0px;fill:#1a237e;fill-opacity:1;stroke:none;stroke-width:1px;stroke-linecap:butt;stroke-linejoin:miter;stroke-opacity:1;"
       x="26.418701"
       y="1044.1404"
       id="text4316"
       sodipodi:linespacing="125%"><tspan
         sodipodi:role="line"
         id="tspan4318"
         x="26.418701"
         y="1044.1404">E</tspan></text>
    <text
       xml:space="preserve"
       style="font-style:normal;font-weight:normal;font-size:6.25px;line-height:125%;font-family:Sans;letter-spacing:0px;word-spacing:0px;fill:#1a237e;fill-opacity:1;stroke:none;stroke-width:1px;stroke-linecap:butt;stroke-linejoin:miter;stroke-opacity:1;"
       x="35.112"
       y="1044.1404"
       id="text4320"
       sodipodi:linespacing="125%"><tspan
         sodipodi:role="line"
         id="tspan4322"
         x="35.112"
         y="1044.1404">R</tspan></text>
    <text
       xml:space="preserve"
       style="font-style:normal;font-weight:normal;font-size:6.25px;line-height:125%;font-family:Sans;letter-spacing:0px;word-spacing:0px;fill:#1a237e;fill-opacity:1;stroke:none;stroke-width:1px;stroke-linecap:butt;stroke-linejoin:miter;stroke-opacity:1;"
       x="17.07843"
       y="1026.1404"
       id="text4379"
       sodipodi:linespacing="125%"><tspan
         sodipodi:role="line"
         id="tspan4381"
         x="17.07843"
         y="1026.1404">K</tspan></text>
    <text
       xml:space="preserve"
       style="font-style:normal;font-weight:normal;font-size:6.25px;line-height:125%;font-family:Sans;letter-spacing:0px;word-spacing:0px;fill:#1a237e;fill-opacity:1;stroke:none;stroke-width:1px;stroke-linecap:butt;stroke-linejoin:miter;stroke-opacity:1;"
       x="26.469055"
       y="1026.1404"
       id="text4383"
       sodipodi:linespacing="125%"><tspan
         sodipodi:role="line"
         id="tspan4385"
         x="26.469055"
         y="1026.1404">L</tspan></text>
    <text
       xml:space="preserve"
       style="font-style:normal;font-weight:normal;font-size:6.25px;line-height:125%;font-family:Sans;letter-spacing:0px;word-spacing:0px;fill:#1a237e;fill-opacity:1;stroke:none;stroke-width:1px;stroke-linecap:butt;stroke-linejoin:miter;stroke-opacity:1;"
       x="17.07843"
       y="1035.1404"
       id="text4387"
       sodipodi:linespacing="125%"><tspan
         sodipodi:role="line"
         id="tspan4389"
         x="17.07843"
         y="1035.1404">K</tspan></text>
    <text
       xml:space="preserve"
       style="font-style:normal;font-weight:normal;font-size:6.25px;line-height:125%;font-family:Sans;letter-spacing:0px;word-spacing:0px;fill:#1a237e;fill-opacity:1;stroke:none;stroke-width:1px;stroke-linecap:butt;stroke-linejoin:miter;stroke-opacity:1;"
       x="26.270691"
       y="1035.1404"
       id="text4391"
       sodipodi:linespacing="125%"><tspan
         sodipodi:role="line"
         id="tspan4393"
         x="26.270691"
         y="1035.1404">B</tspan></text>
  </g>
</svg>
